<?xml version="1.0" encoding="utf-8"?>
<!-- Generator: Adobe Illustrator 24.1.2, SVG Export Plug-In . SVG Version: 6.00 Build 0)  -->
<svg version="1.1" id="Layer_1" focusable="false" xmlns="http://www.w3.org/2000/svg" xmlns:xlink="http://www.w3.org/1999/xlink"
	 x="0px" y="0px" viewBox="0 0 723.6 512" style="enable-background:new 0 0 723.6 512;" xml:space="preserve">
<style type="text/css">
	.st0{opacity:0.6;enable-background:new    ;}
</style>
<g>
	<path class="st0" d="M502.4,240.5l-94.7-47.3l33.5-100.4c4.5-13.6-8.4-26.5-21.9-21.9l-100.4,33.5L271.5,9.6
		c-4.3-8.6-14.6-12-23.2-7.8c-3.4,1.7-6.1,4.4-7.8,7.8l-47.3,94.7L92.7,70.8c-13.6-4.5-26.5,8.4-21.9,21.9l33.5,100.4L9.6,240.5
		c-8.6,4.3-12,14.6-7.8,23.2c1.7,3.4,4.4,6.1,7.8,7.8l94.7,47.3L70.8,419.3c-4.5,13.6,8.4,26.5,21.9,21.9l100.4-33.5l47.3,94.7
		c4.3,8.6,14.6,12,23.2,7.8c3.4-1.7,6.1-4.4,7.8-7.8l47.3-94.7l100.4,33.5c13.6,4.5,26.5-8.4,21.9-21.9l-33.5-100.4l94.7-47.3
		c8.6-4.2,12.2-14.5,8-23.1C508.6,245,505.8,242.2,502.4,240.5L502.4,240.5z M346.5,346.5c-49.9,49.9-131.1,49.9-181,0
		c-49.9-50-49.9-131,0-181c49.9-49.9,131.1-49.9,181,0C396.4,215.5,396.4,296.5,346.5,346.5z"/>
	<path d="M352,256c0,53-43,96-96,96s-96-43-96-96s43-96,96-96C309,160.1,351.9,203,352,256z"/>
	<path d="M707.6,352h-48V48c0-8.8-7.2-16-16-16h-32c-8.8,0-16,7.2-16,16v304h-48c-14.2,0-21.4,17.2-11.3,27.3l80,96
		c6.2,6.2,16.4,6.2,22.6,0l80-96C728.9,369.3,721.8,352,707.6,352z"/>
</g>
</svg>
