<?xml version="1.0" encoding="utf-8"?>
<!-- Generator: Adobe Illustrator 24.1.2, SVG Export Plug-In . SVG Version: 6.00 Build 0)  -->
<svg version="1.1" id="Layer_1" xmlns="http://www.w3.org/2000/svg" xmlns:xlink="http://www.w3.org/1999/xlink" x="0px" y="0px"
	 viewBox="0 0 256 256" style="enable-background:new 0 0 256 256;" xml:space="preserve">
<style type="text/css">
	.st0{fill:#0D7D7B;}
	.st1{opacity:0.6;fill:#FFFFFF;enable-background:new    ;}
	.st2{fill:#FFFFFF;}
</style>
<path class="st0" d="M244,256H12c-6.6,0-12-5.4-12-12V12C0,5.4,5.4,0,12,0h232c6.6,0,12,5.4,12,12v232C256,250.6,250.6,256,244,256z
	"/>
<g>
	<path class="st1" d="M162.1,123.2l-22.9-11.5l8.1-24.3c1.1-3.3-2-6.4-5.3-5.3l-24.3,8.1l-11.5-23c-1-2.1-3.5-2.9-5.6-1.9
		c-0.8,0.4-1.5,1.1-1.9,1.9L87.2,90.3l-24.3-8.1c-3.3-1.1-6.4,2-5.3,5.3l8.1,24.3l-22.9,11.5c-2.1,1-2.9,3.5-1.9,5.6
		c0.4,0.8,1.1,1.5,1.9,1.9l22.9,11.5l-8.1,24.3c-1.1,3.3,2,6.4,5.3,5.3l24.3-8.1l11.5,22.9c1,2.1,3.5,2.9,5.6,1.9
		c0.8-0.4,1.5-1.1,1.9-1.9l11.5-22.9l24.3,8.1c3.3,1.1,6.4-2,5.3-5.3l-8.1-24.3l22.9-11.5c2.1-1,3-3.5,1.9-5.6
		C163.6,124.3,162.9,123.7,162.1,123.2L162.1,123.2z M124.3,148.9c-12.1,12.1-31.8,12.1-43.8,0c-12.1-12.1-12.1-31.7,0-43.8
		c12.1-12.1,31.8-12.1,43.8,0C136.4,117.2,136.4,136.8,124.3,148.9z"/>
	<path class="st2" d="M125.7,127c0,12.8-10.4,23.3-23.3,23.3S79.2,139.8,79.2,127c0-12.8,10.4-23.3,23.3-23.3
		C115.3,103.8,125.6,114.2,125.7,127z"/>
	<path class="st2" d="M211.8,150.2h-11.6V76.6c0-2.1-1.7-3.9-3.9-3.9h-7.8c-2.1,0-3.9,1.7-3.9,3.9v73.6H173c-3.4,0-5.2,4.2-2.7,6.6
		l19.4,23.3c1.5,1.5,4,1.5,5.5,0l19.4-23.3C216.9,154.4,215.2,150.2,211.8,150.2z"/>
</g>
</svg>
