<?xml version="1.0" encoding="utf-8"?>
<!-- Generator: Adobe Illustrator 24.1.2, SVG Export Plug-In . SVG Version: 6.00 Build 0)  -->
<svg version="1.1" id="Layer_1" xmlns="http://www.w3.org/2000/svg" xmlns:xlink="http://www.w3.org/1999/xlink" x="0px" y="0px"
	 viewBox="0 0 256 256" style="enable-background:new 0 0 256 256;" xml:space="preserve">
<style type="text/css">
	.st0{fill:#0D7D7B;}
	.st1{opacity:0.6;fill:#FFFFFF;enable-background:new    ;}
	.st2{fill:#FFFFFF;}
</style>
<path class="st0" d="M244,256H12c-6.6,0-12-5.4-12-12V12C0,5.4,5.4,0,12,0h232c6.6,0,12,5.4,12,12v232C256,250.6,250.6,256,244,256z
	"/>
<g>
	<path class="st1" d="M162.2,125l-22.9-11.5l8.1-24.3c1.1-3.3-2-6.4-5.3-5.3L117.8,92l-11.5-23c-1-2.1-3.5-2.9-5.6-1.9
		c-0.8,0.4-1.5,1.1-1.9,1.9L87.3,92L63,83.9c-3.3-1.1-6.4,2-5.3,5.3l8.1,24.3L42.9,125c-2.1,1-2.9,3.5-1.9,5.6
		c0.4,0.8,1.1,1.5,1.9,1.9L65.8,144l-8.1,24.3c-1.1,3.3,2,6.4,5.3,5.3l24.3-8.1l11.5,22.9c1,2.1,3.5,2.9,5.6,1.9
		c0.8-0.4,1.5-1.1,1.9-1.9l11.5-22.9l24.3,8.1c3.3,1.1,6.4-2,5.3-5.3l-8.1-24.3l22.9-11.5c2.1-1,3-3.5,1.9-5.6
		C163.7,126.1,163,125.4,162.2,125L162.2,125z M124.4,150.7c-12.1,12.1-31.8,12.1-43.8,0c-12.1-12.1-12.1-31.7,0-43.8
		c12.1-12.1,31.8-12.1,43.8,0C136.5,118.9,136.5,138.6,124.4,150.7z"/>
	<path class="st2" d="M125.8,128.7c0,12.8-10.4,23.3-23.3,23.3s-23.3-10.4-23.3-23.3s10.4-23.3,23.3-23.3
		C115.4,105.5,125.8,115.9,125.8,128.7z"/>
	<path class="st2" d="M214.3,98.9L195,75.6c-1.5-1.5-4-1.5-5.5,0l0,0l-19.4,23.3c-2.4,2.4-0.7,6.6,2.7,6.6h11.6v73.6
		c0,2.1,1.7,3.9,3.9,3.9h7.8c2.1,0,3.9-1.7,3.9-3.9v-73.6h11.6C215,105.5,216.8,101.3,214.3,98.9z"/>
</g>
</svg>
