<svg aria-hidden="true" focusable="false" data-prefix="fad" data-icon="light-switch-on" role="img" xmlns="http://www.w3.org/2000/svg" viewBox="0 0 384 512" class="svg-inline--fa fa-light-switch-on fa-w-12 fa-9x"><g class="fa-group"><path fill="currentColor" d="M96,256V144a48,48,0,0,1,48-48h96a48,48,0,0,1,48,48V256Z" class="fa-secondary"></path><path fill="currentColor" d="M64,512H320a64,64,0,0,0,64-64V64A64,64,0,0,0,320,0H64A64,64,0,0,0,0,64V448A64,64,0,0,0,64,512Zm128-32a16,16,0,1,1,16-16A16,16,0,0,1,192,480Zm0-448a16,16,0,1,1-16,16A16,16,0,0,1,192,32ZM96,256V144a48,48,0,0,1,48-48h96a48,48,0,0,1,48,48V368a48,48,0,0,1-48,48H144a48,48,0,0,1-48-48Z" class="fa-primary"></path></g></svg>