<?xml version="1.0" encoding="utf-8"?>
<!-- Generator: Adobe Illustrator 24.1.2, SVG Export Plug-In . SVG Version: 6.00 Build 0)  -->
<svg version="1.1" id="Layer_1" xmlns="http://www.w3.org/2000/svg" xmlns:xlink="http://www.w3.org/1999/xlink" x="0px" y="0px"
	 viewBox="0 0 256 256" style="enable-background:new 0 0 256 256;" xml:space="preserve">
<style type="text/css">
	.st0{fill:#0D7D7B;}
	.st1{opacity:0.6;fill:#FFFFFF;enable-background:new    ;}
	.st2{fill:#FFFFFF;}
</style>
<path class="st0" d="M244,256H12c-6.6,0-12-5.4-12-12V12C0,5.4,5.4,0,12,0h232c6.6,0,12,5.4,12,12v232C256,250.6,250.6,256,244,256z
	"/>
<g>
	<path class="st1" d="M128.4,133.1V92.7c0-15-12.1-27.1-27.1-27.1S74.2,77.8,74.2,92.7v40.3c-4.8,6-7.8,13.4-7.8,21.7
		c0,19.3,15.6,34.9,34.9,34.9s34.9-15.6,34.9-34.9C136.2,146.5,133.2,139,128.4,133.1z M101.3,174.1c-10.7,0-19.4-8.6-19.4-19.3
		c0-6.1,2.9-11.9,7.8-15.5V92.7c0-6.4,5.2-11.6,11.6-11.6s11.6,5.2,11.6,11.6v46.5c8.6,6.4,10.3,18.5,3.9,27.1
		C113.2,171.3,107.4,174.1,101.3,174.1z"/>
	<path class="st2" d="M105.2,143.8V92.7c0-2.1-1.7-3.9-3.9-3.9s-3.9,1.7-3.9,3.9v51.1c-6.1,2.1-9.2,8.8-7.1,14.8
		c2.1,6.1,8.8,9.2,14.8,7.1s9.2-8.8,7.1-14.8C111.1,147.6,108.5,145,105.2,143.8z M189.3,97.8l-19.4-23.2c-1.5-1.5-4-1.5-5.5,0
		c0,0,0,0,0,0l-19.4,23.2c-2.4,2.4-0.7,6.6,2.7,6.6h11.6V178c0,2.1,1.7,3.9,3.9,3.9h7.8c2.1,0,3.9-1.7,3.9-3.9v-73.6h11.6
		C190,104.4,191.7,100.2,189.3,97.8z"/>
</g>
</svg>
