<?xml version="1.0" encoding="utf-8"?>
<!-- Generator: Adobe Illustrator 24.1.2, SVG Export Plug-In . SVG Version: 6.00 Build 0)  -->
<svg version="1.1" id="Layer_1" xmlns="http://www.w3.org/2000/svg" xmlns:xlink="http://www.w3.org/1999/xlink" x="0px" y="0px"
	 viewBox="0 0 256 256" style="enable-background:new 0 0 256 256;" xml:space="preserve">
<style type="text/css">
	.st0{fill:#0D7D7B;}
	.st1{opacity:0.6;fill:#FFFFFF;enable-background:new    ;}
	.st2{fill:#FFFFFF;}
</style>
<path class="st0" d="M244,256H12c-6.6,0-12-5.4-12-12V12C0,5.4,5.4,0,12,0h232c6.6,0,12,5.4,12,12v232C256,250.6,250.6,256,244,256z
	"/>
<g>
	<path class="st1" d="M128,133.7V93.4c0-15-12.1-27.1-27.1-27.1S73.8,78.4,73.8,93.4v40.3c-4.8,6-7.8,13.4-7.8,21.7
		c0,19.3,15.6,34.9,34.9,34.9s34.9-15.6,34.9-34.9C135.8,147.2,132.8,139.7,128,133.7z M100.9,174.8c-10.7,0-19.4-8.6-19.4-19.3
		c0-6.1,2.9-11.9,7.8-15.5V93.4c0-6.4,5.2-11.6,11.6-11.6s11.6,5.2,11.6,11.6v46.5c8.6,6.4,10.3,18.5,3.9,27.1
		C112.8,171.9,107,174.8,100.9,174.8z"/>
	<path class="st2" d="M104.8,144.5v-4.6c0-2.1-1.7-3.9-3.9-3.9s-3.9,1.7-3.9,3.9v4.6c-6.1,2.1-9.2,8.8-7.1,14.8
		c2.1,6.1,8.8,9.2,14.8,7.1c6.1-2.1,9.2-8.8,7.1-14.8C110.7,148.2,108.1,145.6,104.8,144.5z M186.1,151.5h-11.6V77.9
		c0-2.1-1.7-3.9-3.9-3.9h-7.8c-2.1,0-3.9,1.7-3.9,3.9v73.6h-11.6c-3.4,0-5.2,4.2-2.7,6.6l19.4,23.2c1.5,1.5,4,1.5,5.5,0l19.4-23.2
		C191.3,155.7,189.6,151.5,186.1,151.5z"/>
</g>
</svg>
