<?xml version="1.0" encoding="utf-8"?>
<!-- Generator: Adobe Illustrator 24.1.2, SVG Export Plug-In . SVG Version: 6.00 Build 0)  -->
<svg version="1.1" id="Layer_1" xmlns="http://www.w3.org/2000/svg" xmlns:xlink="http://www.w3.org/1999/xlink" x="0px" y="0px"
	 viewBox="0 0 256 256" style="enable-background:new 0 0 256 256;" xml:space="preserve">
<style type="text/css">
	.st0{fill:#CC3363;}
	.st1{opacity:0.6;fill:#FFFFFF;enable-background:new    ;}
	.st2{fill:#FFFFFF;}
</style>
<path class="st0" d="M244,256H12c-6.6,0-12-5.4-12-12V12C0,5.4,5.4,0,12,0h232c6.6,0,12,5.4,12,12v232C256,250.6,250.6,256,244,256z
	"/>
<g>
	<path class="st1" d="M46,151v-46.5c0-4.3,3.5-7.7,7.7-7.7h33L115.4,68c4.8-4.8,13.2-1.4,13.2,5.5V182c0,6.9-8.4,10.3-13.2,5.5
		l-28.7-28.7h-33C49.5,158.8,46,155.3,46,151C46,151,46,151,46,151z"/>
	<path class="st2" d="M150.8,113c-2-2-2-5.3,0-7.4l7.4-7.4c2-2,5.3-2,7.4,0l14.7,14.7l14.7-14.7c2-2,5.3-2,7.4,0l7.4,7.4
		c2,2,2,5.3,0,7.4l-14.7,14.7l14.7,14.7c2,2,2,5.3,0,7.4l-7.4,7.4c-2,2-5.3,2-7.4,0l-14.7-14.7l-14.7,14.7c-2,2-5.3,2-7.4,0
		l-7.4-7.4c-2-2-2-5.3,0-7.4l14.7-14.7L150.8,113z"/>
</g>
</svg>
